<svg width="1952mm" height="1306mm" version="1.1" viewBox="0 0 1952 1306" xmlns="http://www.w3.org/2000/svg" xmlns:xlink="http://www.w3.org/1999/xlink"><rect width="1952" height="1306" fill="#fff"/>
 <g fill="none" stroke="#000"><path d="m1807 6v1145m-216-1145v1145m-216-1145v1145m-216-1145v1145m-216-1145v1145m-216-1145v1145m-216-1145v1145m-216-1145v1145m-118-137h1738m-1738-252h1738m-1738-252h1738m-1738-252h1738"/><path d="m1915 6v1154m-216-1154v1154m-216-1154v1154m-216-1154v1154m-216-1154v1154m-216-1154v1154m-216-1154v1154m-216-1154v1154m-216-1154v1154m-21-20h1749m-1749-252h1749m-1749-252h1749m-1749-252h1749m-1749-252h1749" stroke-width="2"/></g>
 <path id="d" d="m1051 1140h-864c116 0 268 8 383-83 17-13 34-31 51-53 96-126 181-382 277-645 25-70 90-226 153-226" fill="#dcc"/><path id="c" d="m1051 1140h-432v-136c96-126 183-382 279-645 25-70 90-226 153-226" fill="#d99"/><path id="b" d="m1051 1141h-216v-610c20-56 42-113 63-171 25-70 90-226 153-226" fill="#a77"/><use transform="matrix(-1 0 0 1 2102 0)" xlink:href="#d"/><use transform="matrix(-1 0 0 1 2102 0)" xlink:href="#c"/><use transform="matrix(-1 0 0 1 2100 0)" xlink:href="#b"/><path id="a" d="m1051 133c-63 0-128 156-153 226-113 309-210 607-328 698-115 91-267 83-383 83" fill="none" stroke="#000" stroke-width="6"/><use transform="matrix(-1 0 0 1 2102 0)" xlink:href="#a"/><path d="m835 530h432m-648 474h864m-1087 125h1313" fill="none" stroke="#000" stroke-dasharray="6" stroke-width="4"/><rect x="187" y="6" width="1728" height="1134" fill="none" stroke="#000" stroke-width="6"/>
 <g font-family="Times" font-size="61px">
 <g text-anchor="middle"><text x="187" y="1208">−4σ</text><text x="403" y="1208">−3σ</text><text x="619" y="1208">−2σ</text><text x="1051" y="1208">0</text><text x="834" y="1208">−1σ</text><text x="1267" y="1208">1σ</text><text x="1483" y="1208">2σ</text><text x="1699" y="1208">3σ</text><text x="1915" y="1208">4σ</text>
 <g font-size="81px"><text x="1051" y="1283">Standard Deviation from the Mean</text><text transform="rotate(-90)" x="-585" y="60">Probability Density</text><text x="1050" y="1111">99.7 %</text>
 <text x="1050" y="985">95.4 %</text><text x="1050" y="513">68.3 %</text></g></g>
 <g text-anchor="end"><text x="162" y="1160">0,0</text><text x="162" y="908">0.1</text><text x="162" y="656">0.2</text><text x="162" y="404">0.3</text><text x="162" y="152">0.4</text></g></g></svg>