<?xml version="1.0" encoding="UTF-8"?>
<svg xmlns="http://www.w3.org/2000/svg" width="1200" height="600" viewBox="0 0 1200 600">
  <rect width="100%" height="100%" fill="#ffffff"/>
  <g stroke="#1f2937" stroke-width="2" fill="none">
    <!-- Input layer -->
    <circle cx="150" cy="150" r="18"/>
    <circle cx="150" cy="250" r="18"/>
    <circle cx="150" cy="350" r="18"/>
    <circle cx="150" cy="450" r="18"/>

    <!-- Hidden layer 1 -->
    <circle cx="500" cy="120" r="18"/>
    <circle cx="500" cy="220" r="18"/>
    <circle cx="500" cy="320" r="18"/>
    <circle cx="500" cy="420" r="18"/>
    <circle cx="500" cy="520" r="18"/>

    <!-- Hidden layer 2 -->
    <circle cx="800" cy="170" r="18"/>
    <circle cx="800" cy="270" r="18"/>
    <circle cx="800" cy="370" r="18"/>
    <circle cx="800" cy="470" r="18"/>

    <!-- Output layer -->
    <circle cx="1050" cy="240" r="18"/>
    <circle cx="1050" cy="360" r="18"/>
  </g>

  <!-- Connections -->
  <g stroke="#94a3b8" stroke-width="1">
    <!-- Input to Hidden 1 -->
    <line x1="168" y1="150" x2="482" y2="120"/>
    <line x1="168" y1="150" x2="482" y2="220"/>
    <line x1="168" y1="150" x2="482" y2="320"/>
    <line x1="168" y1="150" x2="482" y2="420"/>
    <line x1="168" y1="150" x2="482" y2="520"/>

    <line x1="168" y1="250" x2="482" y2="120"/>
    <line x1="168" y1="250" x2="482" y2="220"/>
    <line x1="168" y1="250" x2="482" y2="320"/>
    <line x1="168" y1="250" x2="482" y2="420"/>
    <line x1="168" y1="250" x2="482" y2="520"/>

    <line x1="168" y1="350" x2="482" y2="120"/>
    <line x1="168" y1="350" x2="482" y2="220"/>
    <line x1="168" y1="350" x2="482" y2="320"/>
    <line x1="168" y1="350" x2="482" y2="420"/>
    <line x1="168" y1="350" x2="482" y2="520"/>

    <line x1="168" y1="450" x2="482" y2="120"/>
    <line x1="168" y1="450" x2="482" y2="220"/>
    <line x1="168" y1="450" x2="482" y2="320"/>
    <line x1="168" y1="450" x2="482" y2="420"/>
    <line x1="168" y1="450" x2="482" y2="520"/>

    <!-- Hidden 1 to Hidden 2 -->
    <line x1="518" y1="120" x2="782" y2="170"/>
    <line x1="518" y1="120" x2="782" y2="270"/>
    <line x1="518" y1="120" x2="782" y2="370"/>
    <line x1="518" y1="120" x2="782" y2="470"/>

    <line x1="518" y1="220" x2="782" y2="170"/>
    <line x1="518" y1="220" x2="782" y2="270"/>
    <line x1="518" y1="220" x2="782" y2="370"/>
    <line x1="518" y1="220" x2="782" y2="470"/>

    <line x1="518" y1="320" x2="782" y2="170"/>
    <line x1="518" y1="320" x2="782" y2="270"/>
    <line x1="518" y1="320" x2="782" y2="370"/>
    <line x1="518" y1="320" x2="782" y2="470"/>

    <line x1="518" y1="420" x2="782" y2="170"/>
    <line x1="518" y1="420" x2="782" y2="270"/>
    <line x1="518" y1="420" x2="782" y2="370"/>
    <line x1="518" y1="420" x2="782" y2="470"/>

    <line x1="518" y1="520" x2="782" y2="170"/>
    <line x1="518" y1="520" x2="782" y2="270"/>
    <line x1="518" y1="520" x2="782" y2="370"/>
    <line x1="518" y1="520" x2="782" y2="470"/>

    <!-- Hidden 2 to Output -->
    <line x1="818" y1="170" x2="1032" y2="240"/>
    <line x1="818" y1="170" x2="1032" y2="360"/>
    <line x1="818" y1="270" x2="1032" y2="240"/>
    <line x1="818" y1="270" x2="1032" y2="360"/>
    <line x1="818" y1="370" x2="1032" y2="240"/>
    <line x1="818" y1="370" x2="1032" y2="360"/>
    <line x1="818" y1="470" x2="1032" y2="240"/>
    <line x1="818" y1="470" x2="1032" y2="360"/>
  </g>

  <!-- Labels -->
  <g fill="#0f172a" font-family="Arial, Helvetica, sans-serif" font-size="28" font-weight="600" text-anchor="middle">
    <text x="150" y="70">Input</text>
    <text x="500" y="70">Hidden 1</text>
    <text x="800" y="70">Hidden 2</text>
    <text x="1050" y="70">Output</text>
  </g>

  <g fill="#0f172a" font-family="Arial, Helvetica, sans-serif" font-size="18" text-anchor="middle" dominant-baseline="middle">
    <!-- Input labels -->
    <g>
      <text x="145" y="150">x</text>
      <text x="153" y="157" font-size="11">0</text>
    </g>
    <g>
      <text x="145" y="250">x</text>
      <text x="153" y="257" font-size="11">1</text>
    </g>
    <g>
      <text x="145" y="350">x</text>
      <text x="153" y="357" font-size="11">2</text>
    </g>
    <g>
      <text x="145" y="450">x</text>
      <text x="153" y="457" font-size="11">3</text>
    </g>

    <!-- Output labels -->
    <g>
      <text x="1045" y="240">ŷ</text>
      <text x="1053" y="247" font-size="11">0</text>
    </g>
    <g>
      <text x="1045" y="360">ŷ</text>
      <text x="1053" y="367" font-size="11">1</text>
    </g>
  </g>

  <g fill="#0f172a" font-family="Arial, Helvetica, sans-serif" text-anchor="middle" dominant-baseline="middle">
    <!-- Hidden layer 1 labels -->
    <g>
      <text x="495" y="120" font-size="18">h</text>
      <text x="505" y="112" font-size="11">(1)</text>
      <text x="505" y="128" font-size="11">0</text>
    </g>
    <g>
      <text x="495" y="220" font-size="18">h</text>
      <text x="505" y="212" font-size="11">(1)</text>
      <text x="505" y="228" font-size="11">1</text>
    </g>
    <g>
      <text x="495" y="320" font-size="18">h</text>
      <text x="505" y="312" font-size="11">(1)</text>
      <text x="505" y="328" font-size="11">2</text>
    </g>
    <g>
      <text x="495" y="420" font-size="18">h</text>
      <text x="505" y="412" font-size="11">(1)</text>
      <text x="505" y="428" font-size="11">3</text>
    </g>
    <g>
      <text x="495" y="520" font-size="18">h</text>
      <text x="505" y="512" font-size="11">(1)</text>
      <text x="505" y="528" font-size="11">4</text>
    </g>

    <!-- Hidden layer 2 labels -->
    <g>
      <text x="795" y="170" font-size="18">h</text>
      <text x="805" y="162" font-size="11">(2)</text>
      <text x="805" y="178" font-size="11">0</text>
    </g>
    <g>
      <text x="795" y="270" font-size="18">h</text>
      <text x="805" y="262" font-size="11">(2)</text>
      <text x="805" y="278" font-size="11">1</text>
    </g>
    <g>
      <text x="795" y="370" font-size="18">h</text>
      <text x="805" y="362" font-size="11">(2)</text>
      <text x="805" y="378" font-size="11">2</text>
    </g>
    <g>
      <text x="795" y="470" font-size="18">h</text>
      <text x="805" y="462" font-size="11">(2)</text>
      <text x="805" y="478" font-size="11">3</text>
    </g>
  </g>

</svg>
