<?xml version="1.0" encoding="UTF-8" standalone="no"?>
<svg width="1009px" height="569px" viewBox="0 0 1009 569" version="1.1" xmlns="http://www.w3.org/2000/svg" xmlns:xlink="http://www.w3.org/1999/xlink" xmlns:sketch="http://www.bohemiancoding.com/sketch/ns">
    <rect width="100%" height="100%" fill="#ffffff"/>
    <g transform="translate(16,16)">
    <!-- Generator: Sketch 3.2.2 (9983) - http://www.bohemiancoding.com/sketch -->
    <title>convolution</title>
    <desc>Created with Sketch.</desc>
    <defs></defs>
    <g id="Page-1" stroke="none" stroke-width="1" fill="none" fill-rule="evenodd" sketch:type="MSPage">
        <rect id="Rectangle-1" stroke="#979797" fill="#D8D8D8" sketch:type="MSShapeGroup" x="1" y="228.868475" width="150" height="150"></rect>
        <rect id="Rectangle-2" stroke="#979797" fill="#FFFFFF" sketch:type="MSShapeGroup" x="325" y="147" width="150" height="150"></rect>
        <rect id="Rectangle-5" stroke="#979797" fill="#FFFFFF" sketch:type="MSShapeGroup" x="372" y="193" width="150" height="150"></rect>
        <rect id="Rectangle-4" stroke="#979797" fill="#FFFFFF" sketch:type="MSShapeGroup" x="423" y="243" width="150" height="150"></rect>
        <rect id="Rectangle-3" stroke="#979797" fill="#FFFFFF" sketch:type="MSShapeGroup" x="474" y="291" width="150" height="150"></rect>
        <path d="M49.5,252.5 L343.550847,166.107981" id="Line" stroke="#979797" stroke-linecap="square" sketch:type="MSShapeGroup"></path>
        <path d="M48.5,270.5 L344.163761,185.343284" id="Line" stroke="#979797" stroke-linecap="square" sketch:type="MSShapeGroup"></path>
        <rect id="Rectangle-7" fill="#D0011B" sketch:type="MSShapeGroup" x="344" y="166" width="20" height="20"></rect>
        <path d="M48.5,271.500001 L391.499993,231.5" id="Line" stroke="#979797" stroke-linecap="square" sketch:type="MSShapeGroup"></path>
        <path d="M48.5,252.5 L390.5,211.892019" id="Line" stroke="#979797" stroke-linecap="square" sketch:type="MSShapeGroup"></path>
        <rect id="Rectangle-8" fill="#4990E2" sketch:type="MSShapeGroup" x="391" y="212" width="20" height="20"></rect>
        <rect id="Rectangle-9" fill="#F6A623" sketch:type="MSShapeGroup" x="573" y="393" width="20" height="20"></rect>
        <rect id="Rectangle-12" fill="#50E3C2" sketch:type="MSShapeGroup" x="492" y="260" width="20" height="20"></rect>
        <path d="M491.5,259.5 L430.5,243.5" id="Line-6" stroke="#50E3C2" stroke-width="2" stroke-linecap="square" stroke-dasharray="1,3" sketch:type="MSShapeGroup"></path>
        <path d="M491.5,279.5 L431.5,289.5" id="Line-7" stroke="#50E3C2" stroke-width="2" stroke-linecap="square" stroke-dasharray="1,3" sketch:type="MSShapeGroup"></path>
        <text id="w3" sketch:type="MSTextLayer" font-family="Avenir Next" font-size="20" font-weight="normal" fill="#50E3C2">
            <tspan x="449" y="271">w</tspan>
            <tspan x="463.92" y="271" font-size="14">3</tspan>
        </text>
        <rect id="Rectangle-6" fill="#7ED321" sketch:type="MSShapeGroup" x="28" y="252" width="20" height="20"></rect>
        <path d="M572.5,392.5 L511.5,376.5" id="Line" stroke="#F6A623" stroke-width="2" stroke-linecap="square" stroke-dasharray="1,3" sketch:type="MSShapeGroup"></path>
        <path d="M572.5,412.5 L512.5,422.5" id="Line" stroke="#F6A623" stroke-width="2" stroke-linecap="square" stroke-dasharray="1,3" sketch:type="MSShapeGroup"></path>
        <text id="w4" sketch:type="MSTextLayer" font-family="Avenir Next" font-size="20" font-weight="normal" fill="#F6A623">
            <tspan x="525" y="405">w</tspan>
            <tspan x="539.92" y="405" font-size="14">4</tspan>
        </text>
        <rect id="Rectangle-10" fill="#F6A623" sketch:type="MSShapeGroup" x="544" y="327" width="20" height="20"></rect>
        <path d="M543.5,326.5 L482.5,310.5" id="Line-2" stroke="#F6A623" stroke-width="2" stroke-linecap="square" stroke-dasharray="1,3" sketch:type="MSShapeGroup"></path>
        <path d="M543.5,346.5 L483.5,356.5" id="Line-3" stroke="#F6A623" stroke-width="2" stroke-linecap="square" stroke-dasharray="1,3" sketch:type="MSShapeGroup"></path>
        <text id="w4" sketch:type="MSTextLayer" font-family="Avenir Next" font-size="20" font-weight="normal" fill="#F6A623">
            <tspan x="499" y="337">w</tspan>
            <tspan x="513.92" y="337" font-size="14">4</tspan>
        </text>
        <rect id="Rectangle-16" stroke="#979797" fill="#FFFFFF" sketch:type="MSShapeGroup" x="684" y="155" width="112" height="111"></rect>
        <rect id="Rectangle-11" fill="#50E3C2" sketch:type="MSShapeGroup" x="446" y="352" width="20" height="20"></rect>
        <path d="M445.5,351.5 L384.5,335.5" id="Line-4" stroke="#50E3C2" stroke-width="2" stroke-linecap="square" stroke-dasharray="1,3" sketch:type="MSShapeGroup"></path>
        <path d="M445.5,371.5 L385.5,381.5" id="Line-5" stroke="#50E3C2" stroke-width="2" stroke-linecap="square" stroke-dasharray="1,3" sketch:type="MSShapeGroup"></path>
        <rect id="Rectangle-20" stroke="#979797" fill="#FFFFFF" sketch:type="MSShapeGroup" x="715" y="184" width="112" height="111"></rect>
        <rect id="Rectangle-13" stroke="#979797" fill="#FFFFFF" sketch:type="MSShapeGroup" x="749" y="219" width="112" height="111"></rect>
        <rect id="Rectangle-14" stroke="#979797" fill="#FFFFFF" sketch:type="MSShapeGroup" x="781" y="251" width="112" height="111"></rect>
        <rect id="Rectangle-15" stroke="#979797" fill="#FFFFFF" sketch:type="MSShapeGroup" x="814" y="285" width="112" height="111"></rect>
        <rect id="Rectangle-23" stroke="#979797" fill="#FFFFFF" sketch:type="MSShapeGroup" x="847" y="318" width="112" height="111"></rect>
        <text id="w3" sketch:type="MSTextLayer" font-family="Avenir Next" font-size="20" font-weight="normal" fill="#50E3C2">
            <tspan x="399" y="362">w</tspan>
            <tspan x="413.92" y="362" font-size="14">3</tspan>
        </text>
        <rect id="Rectangle-17" stroke="#979797" sketch:type="MSShapeGroup" x="801" y="194" width="15" height="15"></rect>
        <rect id="Rectangle-18" stroke="#979797" sketch:type="MSShapeGroup" x="435" y="147" width="40" height="40"></rect>
        <rect id="Rectangle-19" stroke="#979797" sketch:type="MSShapeGroup" x="482" y="193" width="40" height="40"></rect>
        <rect id="Rectangle-21" stroke="#979797" sketch:type="MSShapeGroup" x="584" y="291" width="40" height="40"></rect>
        <rect id="Rectangle-22" stroke="#979797" sketch:type="MSShapeGroup" x="533" y="243" width="40" height="40"></rect>
        <path d="M623.5,330.5 L801.5,208.5" id="Line" stroke="#979797" stroke-linecap="square" stroke-dasharray="4" sketch:type="MSShapeGroup"></path>
        <path d="M623.5,291.5 L801.5,194.5" id="Line" stroke="#979797" stroke-linecap="square" stroke-dasharray="4" sketch:type="MSShapeGroup"></path>
        <path d="M572.5,282.5 L801.5,208.5" id="Line" stroke="#979797" stroke-linecap="square" stroke-dasharray="4" sketch:type="MSShapeGroup"></path>
        <path d="M572.5,243.5 L801.5,194.5" id="Line" stroke="#979797" stroke-linecap="square" stroke-dasharray="4" sketch:type="MSShapeGroup"></path>
        <path d="M521.5,232.5 L802.5,208.5" id="Line" stroke="#979797" stroke-linecap="square" stroke-dasharray="4" sketch:type="MSShapeGroup"></path>
        <path d="M521.5,193.5 L801.5,194.5" id="Line" stroke="#979797" stroke-linecap="square" stroke-dasharray="4" sketch:type="MSShapeGroup"></path>
        <path d="M475.5,186.5 L802.5,208.5" id="Line" stroke="#979797" stroke-linecap="square" stroke-dasharray="4" sketch:type="MSShapeGroup"></path>
        <path d="M475.5,147.5 L802.5,194.5" id="Line" stroke="#979797" stroke-linecap="square" stroke-dasharray="4" sketch:type="MSShapeGroup"></path>
        <text id="Image" sketch:type="MSTextLayer" font-family="Helvetica Neue" font-size="36" font-weight="normal" fill="#4A4A4A">
            <tspan x="26" y="518">Image</tspan>
        </text>
        <text id="Convolution" sketch:type="MSTextLayer" font-family="Helvetica Neue" font-size="36" font-weight="normal" sketch:alignment="middle" fill="#4A4A4A">
            <tspan x="449.322" y="518">Convolution</tspan>
        </text>
        <text id="feature-maps" sketch:type="MSTextLayer" font-family="Helvetica Neue" font-size="24" font-weight="normal" sketch:alignment="middle" fill="#4A4A4A">
            <tspan x="521.752" y="57">feature maps</tspan>
        </text>
        <text id="Pooling" sketch:type="MSTextLayer" font-family="Helvetica Neue" font-size="36" font-weight="normal" sketch:alignment="middle" fill="#4A4A4A">
            <tspan x="845.34" y="518">Pooling</tspan>
        </text>
        <path d="M592.5,64.5 L726.5,148.5" id="Line" stroke="#979797" stroke-linecap="square" fill="#979797" sketch:type="MSShapeGroup"></path>
        <path id="Line-decoration-1" d="M726.37136,148.41936 C723.726307,145.522018 721.459118,143.038581 718.814065,140.141239 C717.698681,141.920542 716.742638,143.445658 715.627254,145.224961 C719.387691,146.343001 722.610923,147.30132 726.37136,148.41936 C726.37136,148.41936 726.37136,148.41936 726.37136,148.41936 Z" stroke="#979797" stroke-linecap="square" fill="#979797"></path>
        <path d="M591.5,64.5 L399.5,139.5" id="Line-8" stroke="#979797" stroke-linecap="square" fill="#979797" sketch:type="MSShapeGroup"></path>
        <path id="Line-8-decoration-1" d="M399.619786,139.453209 C403.522738,139.055884 406.868125,138.71532 410.771077,138.317995 C410.006991,136.361935 409.35206,134.685311 408.587974,132.729251 C405.449108,135.082636 402.758652,137.099823 399.619786,139.453209 C399.619786,139.453209 399.619786,139.453209 399.619786,139.453209 Z" stroke="#979797" stroke-linecap="square" fill="#979797"></path>
    </g>
    </g>
</svg>
